<svg width="1920" height="1080" viewBox="0 0 1920 1080" fill="none" xmlns="http://www.w3.org/2000/svg">
<rect width="1920" height="1080" fill="#305288"/>
<path d="M451.062 509H437.732L460.096 442.35H475.574L497.791 509H483.777L478.553 491.861H456.336L451.062 509ZM467.811 455.094H467.225L459.07 482.047H475.916L467.811 455.094ZM505.018 509V457.193H517.518V464.762H518.055C518.608 463.557 519.52 462.32 520.789 461.051C522.059 459.749 523.702 458.642 525.721 457.73C527.771 456.819 530.229 456.363 533.094 456.363C538.4 456.363 542.713 457.991 546.033 461.246C549.354 464.501 551.014 469.303 551.014 475.65V509H538.172V478.434C538.172 475.764 537.7 473.616 536.756 471.988C535.844 470.361 534.624 469.173 533.094 468.424C531.564 467.675 529.887 467.301 528.064 467.301C525.851 467.301 523.979 467.789 522.449 468.766C520.952 469.742 519.796 471.093 518.982 472.818C518.201 474.511 517.811 476.448 517.811 478.629V509H505.018ZM577.576 509.781C572.531 509.781 568.429 508.382 565.271 505.582C562.114 502.783 560.535 498.941 560.535 494.059C560.535 489.404 562.098 485.709 565.223 482.975C568.38 480.208 572.97 478.824 578.992 478.824H591.639V474.137C591.639 471.565 590.89 469.579 589.393 468.18C587.895 466.78 585.796 466.08 583.094 466.08C581.368 466.08 579.871 466.373 578.602 466.959C577.332 467.512 576.355 468.326 575.672 469.4C574.988 470.442 574.581 471.646 574.451 473.014H562.439C562.537 470.865 562.977 468.798 563.758 466.812C564.572 464.827 565.792 463.053 567.42 461.49C569.08 459.895 571.212 458.642 573.816 457.73C576.453 456.819 579.627 456.363 583.338 456.363C587.309 456.363 590.874 456.998 594.031 458.268C597.221 459.537 599.728 461.474 601.551 464.078C603.406 466.65 604.334 469.954 604.334 473.99V509H592.176V502.701H591.639C590.955 503.971 589.995 505.143 588.758 506.217C587.553 507.291 586.023 508.154 584.168 508.805C582.345 509.456 580.148 509.781 577.576 509.781ZM581.727 500.406C583.582 500.406 585.258 500.064 586.756 499.381C588.253 498.665 589.441 497.672 590.32 496.402C591.199 495.133 591.639 493.668 591.639 492.008V486.539H581.775C578.943 486.539 576.827 487.158 575.428 488.395C574.028 489.599 573.328 491.21 573.328 493.229C573.328 495.637 574.191 497.444 575.916 498.648C577.641 499.82 579.578 500.406 581.727 500.406ZM578.455 450.992L588.367 436.783H599.695L587.488 450.992H578.455ZM616.98 509V438.834H629.871V509H616.98ZM643.494 509V457.193H656.336V509H643.494ZM642.615 444.352C642.615 442.333 643.331 440.706 644.764 439.469C646.196 438.199 647.905 437.564 649.891 437.564C651.909 437.564 653.618 438.199 655.018 439.469C656.45 440.706 657.166 442.333 657.166 444.352C657.166 446.337 656.45 447.965 655.018 449.234C653.618 450.471 651.909 451.09 649.891 451.09C647.905 451.09 646.196 450.471 644.764 449.234C643.331 447.965 642.615 446.337 642.615 444.352ZM667.908 472.574C667.908 468.733 668.868 465.608 670.789 463.199C672.742 460.79 675.298 459.033 678.455 457.926C681.645 456.819 685.047 456.266 688.66 456.266C692.794 456.266 696.326 456.917 699.256 458.219C702.218 459.521 704.497 461.36 706.092 463.736C707.687 466.08 708.484 468.863 708.484 472.086H697.107C697.01 470.979 696.668 469.905 696.082 468.863C695.496 467.822 694.585 466.959 693.348 466.275C692.143 465.559 690.499 465.201 688.416 465.201C685.91 465.201 683.908 465.755 682.41 466.861C680.913 467.968 680.164 469.465 680.164 471.354C680.164 472.623 680.571 473.665 681.385 474.479C682.199 475.26 683.273 475.895 684.607 476.383C685.942 476.871 687.391 477.278 688.953 477.604C690.516 477.896 692.046 478.173 693.543 478.434C696.733 478.987 699.565 479.785 702.039 480.826C704.546 481.868 706.499 483.365 707.898 485.318C709.331 487.239 710.047 489.794 710.047 492.984C710.047 496.533 709.168 499.576 707.41 502.115C705.652 504.622 703.113 506.559 699.793 507.926C696.505 509.26 692.566 509.928 687.977 509.928C683.549 509.928 679.757 509.277 676.6 507.975C673.442 506.673 671.033 504.866 669.373 502.555C667.713 500.243 666.883 497.542 666.883 494.449H679.334C679.529 495.719 680.001 496.842 680.75 497.818C681.531 498.795 682.589 499.56 683.924 500.113C685.291 500.634 686.886 500.895 688.709 500.895C690.727 500.895 692.387 500.618 693.689 500.064C695.024 499.479 696.001 498.714 696.619 497.77C697.27 496.793 697.596 495.751 697.596 494.645C697.596 492.952 696.977 491.682 695.74 490.836C694.536 489.99 692.957 489.339 691.004 488.883C689.051 488.427 686.967 487.988 684.754 487.564C681.661 486.913 678.829 486.035 676.258 484.928C673.719 483.821 671.684 482.291 670.154 480.338C668.657 478.352 667.908 475.764 667.908 472.574ZM741.541 509.928C736.821 509.928 732.687 508.967 729.139 507.047C725.623 505.126 722.889 502.327 720.936 498.648C719.015 494.938 718.055 490.445 718.055 485.172V480.436C718.055 475.357 719.015 471.028 720.936 467.447C722.889 463.834 725.59 461.067 729.041 459.146C732.492 457.226 736.479 456.266 741.004 456.266C745.724 456.266 749.793 457.275 753.211 459.293C756.629 461.311 759.249 464.16 761.072 467.838C762.928 471.484 763.855 475.797 763.855 480.777V485.855H730.652V487.271C730.652 491.178 731.661 494.303 733.68 496.646C735.73 498.958 738.383 500.113 741.639 500.113C743.331 500.113 744.845 499.853 746.18 499.332C747.547 498.779 748.67 497.997 749.549 496.988C750.46 495.979 751.095 494.775 751.453 493.375H763.367C763.074 495.458 762.407 497.493 761.365 499.479C760.356 501.432 758.956 503.189 757.166 504.752C755.408 506.314 753.227 507.568 750.623 508.512C748.019 509.456 744.992 509.928 741.541 509.928ZM730.652 477.701H751.404C751.404 477.669 751.404 477.652 751.404 477.652C751.404 477.652 751.404 477.636 751.404 477.604C751.404 475.39 750.981 473.388 750.135 471.598C749.288 469.807 748.084 468.408 746.521 467.398C744.992 466.357 743.185 465.836 741.102 465.836C738.986 465.836 737.146 466.357 735.584 467.398C734.021 468.408 732.801 469.807 731.922 471.598C731.076 473.388 730.652 475.39 730.652 477.604C730.652 477.636 730.652 477.652 730.652 477.652C730.652 477.652 730.652 477.669 730.652 477.701ZM811.951 456.51C814.295 456.51 816.427 456.868 818.348 457.584C820.301 458.268 821.977 459.228 823.377 460.465C824.809 461.702 825.916 463.134 826.697 464.762H827.186V438.834H840.076V509H827.43V500.992H826.893C826.307 502.327 825.525 503.531 824.549 504.605C823.572 505.647 822.449 506.542 821.18 507.291C819.91 508.04 818.494 508.609 816.932 509C815.402 509.423 813.742 509.635 811.951 509.635C807.752 509.635 804.171 508.642 801.209 506.656C798.279 504.671 796.033 501.855 794.471 498.209C792.908 494.563 792.127 490.234 792.127 485.221V480.875C792.127 475.927 792.924 471.63 794.52 467.984C796.115 464.339 798.393 461.523 801.355 459.537C804.318 457.519 807.85 456.51 811.951 456.51ZM816.053 466.812C814.002 466.812 812.163 467.35 810.535 468.424C808.908 469.465 807.622 471.061 806.678 473.209C805.766 475.357 805.311 478.059 805.311 481.314V484.879C805.311 488.102 805.783 490.803 806.727 492.984C807.671 495.133 808.956 496.744 810.584 497.818C812.212 498.86 814.067 499.381 816.15 499.381C818.429 499.381 820.398 498.827 822.059 497.721C823.719 496.614 825.005 494.986 825.916 492.838C826.827 490.689 827.283 488.053 827.283 484.928V481.314C827.283 478.287 826.811 475.699 825.867 473.551C824.956 471.37 823.654 469.71 821.961 468.57C820.301 467.398 818.331 466.812 816.053 466.812ZM874.451 509.928C869.731 509.928 865.597 508.967 862.049 507.047C858.533 505.126 855.799 502.327 853.846 498.648C851.925 494.938 850.965 490.445 850.965 485.172V480.436C850.965 475.357 851.925 471.028 853.846 467.447C855.799 463.834 858.501 461.067 861.951 459.146C865.402 457.226 869.389 456.266 873.914 456.266C878.634 456.266 882.703 457.275 886.121 459.293C889.539 461.311 892.16 464.16 893.982 467.838C895.838 471.484 896.766 475.797 896.766 480.777V485.855H863.562V487.271C863.562 491.178 864.572 494.303 866.59 496.646C868.641 498.958 871.294 500.113 874.549 500.113C876.242 500.113 877.755 499.853 879.09 499.332C880.457 498.779 881.58 497.997 882.459 496.988C883.37 495.979 884.005 494.775 884.363 493.375H896.277C895.984 495.458 895.317 497.493 894.275 499.479C893.266 501.432 891.867 503.189 890.076 504.752C888.318 506.314 886.137 507.568 883.533 508.512C880.929 509.456 877.902 509.928 874.451 509.928ZM863.562 477.701H884.314C884.314 477.669 884.314 477.652 884.314 477.652C884.314 477.652 884.314 477.636 884.314 477.604C884.314 475.39 883.891 473.388 883.045 471.598C882.199 469.807 880.994 468.408 879.432 467.398C877.902 466.357 876.095 465.836 874.012 465.836C871.896 465.836 870.057 466.357 868.494 467.398C866.932 468.408 865.711 469.807 864.832 471.598C863.986 473.388 863.562 475.39 863.562 477.604C863.562 477.636 863.562 477.652 863.562 477.652C863.562 477.652 863.562 477.669 863.562 477.701ZM954.432 442.35C959.217 442.35 963.286 443.342 966.639 445.328C969.992 447.281 972.547 449.934 974.305 453.287C976.062 456.607 976.941 460.367 976.941 464.566C976.941 468.798 976.046 472.574 974.256 475.895C972.498 479.215 969.926 481.835 966.541 483.756C963.188 485.676 959.103 486.637 954.285 486.637H940.955V509H927.771V442.35H954.432ZM963.514 464.566C963.514 460.79 962.488 457.893 960.438 455.875C958.387 453.857 955.538 452.848 951.893 452.848H940.906V476.285H948.816C951.876 476.285 954.497 475.943 956.678 475.26C958.891 474.544 960.584 473.339 961.756 471.646C962.928 469.921 963.514 467.561 963.514 464.566ZM986.17 509V457.193H999.012V464.322H999.549C999.939 463.215 1000.62 462.06 1001.6 460.855C1002.61 459.618 1003.94 458.577 1005.6 457.73C1007.3 456.852 1009.31 456.412 1011.66 456.412C1012.54 456.412 1013.3 456.445 1013.95 456.51C1014.64 456.575 1015.22 456.656 1015.71 456.754V467.887C1015.22 467.757 1014.51 467.659 1013.56 467.594C1012.65 467.496 1011.69 467.447 1010.68 467.447C1007.85 467.447 1005.6 467.968 1003.94 469.01C1002.28 470.019 1001.1 471.435 1000.38 473.258C999.663 475.081 999.305 477.148 999.305 479.459V509H986.17ZM1045.2 456.266C1050.28 456.266 1054.58 457.34 1058.09 459.488C1061.64 461.604 1064.33 464.534 1066.15 468.277C1067.97 471.988 1068.88 476.236 1068.88 481.021V484.83C1068.88 489.843 1067.97 494.238 1066.15 498.014C1064.33 501.79 1061.64 504.719 1058.09 506.803C1054.58 508.886 1050.28 509.928 1045.2 509.928C1040.12 509.928 1035.81 508.886 1032.26 506.803C1028.72 504.719 1026.03 501.79 1024.21 498.014C1022.38 494.238 1021.47 489.859 1021.47 484.879V481.07C1021.47 476.285 1022.38 472.037 1024.21 468.326C1026.06 464.583 1028.75 461.637 1032.26 459.488C1035.81 457.34 1040.12 456.266 1045.2 456.266ZM1045.2 466.227C1042.73 466.227 1040.69 466.878 1039.1 468.18C1037.5 469.482 1036.33 471.256 1035.58 473.502C1034.84 475.715 1034.46 478.222 1034.46 481.021V485.025C1034.46 487.76 1034.82 490.25 1035.54 492.496C1036.28 494.742 1037.46 496.549 1039.05 497.916C1040.65 499.251 1042.7 499.918 1045.2 499.918C1047.71 499.918 1049.74 499.251 1051.31 497.916C1052.87 496.549 1054.02 494.742 1054.77 492.496C1055.52 490.25 1055.9 487.76 1055.9 485.025V481.021C1055.9 478.222 1055.52 475.699 1054.77 473.453C1054.02 471.207 1052.85 469.449 1051.26 468.18C1049.7 466.878 1047.68 466.227 1045.2 466.227ZM1107.65 509.684C1105.38 509.684 1103.29 509.342 1101.4 508.658C1099.52 507.975 1097.87 507.031 1096.47 505.826C1095.07 504.589 1093.95 503.157 1093.1 501.529H1092.57V526.188H1079.68V457.193H1092.32V464.908H1092.86C1093.54 463.639 1094.36 462.499 1095.3 461.49C1096.28 460.449 1097.4 459.553 1098.67 458.805C1099.94 458.056 1101.34 457.486 1102.87 457.096C1104.4 456.705 1106.06 456.51 1107.85 456.51C1111.69 456.51 1115.08 457.454 1118.01 459.342C1120.94 461.197 1123.23 463.932 1124.89 467.545C1126.55 471.158 1127.38 475.585 1127.38 480.826V485.27C1127.38 490.445 1126.55 494.856 1124.89 498.502C1123.23 502.115 1120.92 504.882 1117.96 506.803C1115.03 508.723 1111.59 509.684 1107.65 509.684ZM1103.7 499.43C1105.78 499.43 1107.61 498.876 1109.17 497.77C1110.76 496.63 1112 494.97 1112.88 492.789C1113.79 490.608 1114.25 487.906 1114.25 484.684V481.266C1114.25 478.173 1113.81 475.553 1112.93 473.404C1112.08 471.223 1110.86 469.579 1109.27 468.473C1107.7 467.333 1105.8 466.764 1103.55 466.764C1101.34 466.764 1099.39 467.35 1097.69 468.521C1096.03 469.693 1094.75 471.354 1093.84 473.502C1092.92 475.65 1092.47 478.222 1092.47 481.217V484.684C1092.47 487.743 1092.92 490.38 1093.84 492.594C1094.78 494.775 1096.08 496.467 1097.74 497.672C1099.43 498.844 1101.42 499.43 1103.7 499.43ZM1159.85 456.266C1164.93 456.266 1169.23 457.34 1172.74 459.488C1176.29 461.604 1178.98 464.534 1180.8 468.277C1182.62 471.988 1183.53 476.236 1183.53 481.021V484.83C1183.53 489.843 1182.62 494.238 1180.8 498.014C1178.98 501.79 1176.29 504.719 1172.74 506.803C1169.23 508.886 1164.93 509.928 1159.85 509.928C1154.77 509.928 1150.46 508.886 1146.91 506.803C1143.36 504.719 1140.68 501.79 1138.86 498.014C1137.03 494.238 1136.12 489.859 1136.12 484.879V481.07C1136.12 476.285 1137.03 472.037 1138.86 468.326C1140.71 464.583 1143.4 461.637 1146.91 459.488C1150.46 457.34 1154.77 456.266 1159.85 456.266ZM1159.85 466.227C1157.38 466.227 1155.34 466.878 1153.75 468.18C1152.15 469.482 1150.98 471.256 1150.23 473.502C1149.48 475.715 1149.11 478.222 1149.11 481.021V485.025C1149.11 487.76 1149.47 490.25 1150.18 492.496C1150.93 494.742 1152.1 496.549 1153.7 497.916C1155.29 499.251 1157.35 499.918 1159.85 499.918C1162.36 499.918 1164.39 499.251 1165.96 497.916C1167.52 496.549 1168.67 494.742 1169.42 492.496C1170.17 490.25 1170.54 487.76 1170.54 485.025V481.021C1170.54 478.222 1170.17 475.699 1169.42 473.453C1168.67 471.207 1167.5 469.449 1165.91 468.18C1164.34 466.878 1162.33 466.227 1159.85 466.227ZM1192.52 472.574C1192.52 468.733 1193.48 465.608 1195.4 463.199C1197.35 460.79 1199.91 459.033 1203.06 457.926C1206.25 456.819 1209.66 456.266 1213.27 456.266C1217.4 456.266 1220.94 456.917 1223.87 458.219C1226.83 459.521 1229.11 461.36 1230.7 463.736C1232.3 466.08 1233.09 468.863 1233.09 472.086H1221.72C1221.62 470.979 1221.28 469.905 1220.69 468.863C1220.11 467.822 1219.19 466.959 1217.96 466.275C1216.75 465.559 1215.11 465.201 1213.03 465.201C1210.52 465.201 1208.52 465.755 1207.02 466.861C1205.52 467.968 1204.77 469.465 1204.77 471.354C1204.77 472.623 1205.18 473.665 1205.99 474.479C1206.81 475.26 1207.88 475.895 1209.22 476.383C1210.55 476.871 1212 477.278 1213.56 477.604C1215.12 477.896 1216.65 478.173 1218.15 478.434C1221.34 478.987 1224.17 479.785 1226.65 480.826C1229.15 481.868 1231.11 483.365 1232.51 485.318C1233.94 487.239 1234.66 489.794 1234.66 492.984C1234.66 496.533 1233.78 499.576 1232.02 502.115C1230.26 504.622 1227.72 506.559 1224.4 507.926C1221.11 509.26 1217.18 509.928 1212.59 509.928C1208.16 509.928 1204.37 509.277 1201.21 507.975C1198.05 506.673 1195.64 504.866 1193.98 502.555C1192.32 500.243 1191.49 497.542 1191.49 494.449H1203.94C1204.14 495.719 1204.61 496.842 1205.36 497.818C1206.14 498.795 1207.2 499.56 1208.53 500.113C1209.9 500.634 1211.5 500.895 1213.32 500.895C1215.34 500.895 1217 500.618 1218.3 500.064C1219.63 499.479 1220.61 498.714 1221.23 497.77C1221.88 496.793 1222.21 495.751 1222.21 494.645C1222.21 492.952 1221.59 491.682 1220.35 490.836C1219.15 489.99 1217.57 489.339 1215.61 488.883C1213.66 488.427 1211.58 487.988 1209.36 487.564C1206.27 486.913 1203.44 486.035 1200.87 484.928C1198.33 483.821 1196.29 482.291 1194.76 480.338C1193.27 478.352 1192.52 475.764 1192.52 472.574ZM1245.25 509V457.193H1258.09V509H1245.25ZM1244.37 444.352C1244.37 442.333 1245.09 440.706 1246.52 439.469C1247.95 438.199 1249.66 437.564 1251.65 437.564C1253.67 437.564 1255.38 438.199 1256.78 439.469C1258.21 440.706 1258.92 442.333 1258.92 444.352C1258.92 446.337 1258.21 447.965 1256.78 449.234C1255.38 450.471 1253.67 451.09 1251.65 451.09C1249.66 451.09 1247.95 450.471 1246.52 449.234C1245.09 447.965 1244.37 446.337 1244.37 444.352ZM1291.59 531.998C1289.96 532.031 1288.51 531.949 1287.24 531.754C1285.97 531.591 1285.03 531.412 1284.41 531.217V525.26C1285.06 525.455 1285.93 525.618 1287 525.748C1288.07 525.878 1289.03 525.943 1289.88 525.943C1291.15 525.943 1292.35 525.732 1293.49 525.309C1294.67 524.918 1295.25 524.104 1295.25 522.867C1295.25 521.565 1294.73 520.735 1293.69 520.377C1292.65 520.051 1291.12 519.889 1289.1 519.889H1286.46V515.006L1288.71 509.684C1284.64 509.163 1281.16 507.828 1278.26 505.68C1275.4 503.531 1273.18 500.683 1271.62 497.135C1270.09 493.587 1269.32 489.534 1269.32 484.977V480.68C1269.32 475.895 1270.24 471.663 1272.06 467.984C1273.88 464.306 1276.52 461.441 1279.97 459.391C1283.42 457.307 1287.55 456.266 1292.37 456.266C1296.73 456.266 1300.48 457.096 1303.6 458.756C1306.76 460.416 1309.2 462.63 1310.93 465.396C1312.68 468.131 1313.61 471.174 1313.71 474.527H1301.84C1301.62 473.095 1301.1 471.777 1300.28 470.572C1299.5 469.335 1298.47 468.359 1297.21 467.643C1295.97 466.894 1294.55 466.52 1292.96 466.52C1289.6 466.52 1286.97 467.805 1285.05 470.377C1283.16 472.916 1282.21 476.399 1282.21 480.826V484.928C1282.21 489.485 1283.18 493.082 1285.1 495.719C1287.05 498.323 1289.69 499.625 1293.01 499.625C1294.93 499.625 1296.52 499.283 1297.79 498.6C1299.06 497.916 1300.04 497.021 1300.72 495.914C1301.44 494.775 1301.89 493.538 1302.09 492.203H1313.95C1313.63 495.621 1312.7 498.567 1311.17 501.041C1309.67 503.482 1307.65 505.436 1305.12 506.9C1302.61 508.333 1299.65 509.26 1296.23 509.684L1294.23 514.273C1296.15 514.273 1297.79 514.599 1299.16 515.25C1300.56 515.901 1301.63 516.829 1302.38 518.033C1303.13 519.238 1303.5 520.719 1303.5 522.477C1303.5 524.625 1302.98 526.383 1301.94 527.75C1300.93 529.15 1299.53 530.191 1297.74 530.875C1295.95 531.559 1293.9 531.933 1291.59 531.998ZM1345.5 456.266C1350.57 456.266 1354.87 457.34 1358.39 459.488C1361.93 461.604 1364.62 464.534 1366.44 468.277C1368.27 471.988 1369.18 476.236 1369.18 481.021V484.83C1369.18 489.843 1368.27 494.238 1366.44 498.014C1364.62 501.79 1361.93 504.719 1358.39 506.803C1354.87 508.886 1350.57 509.928 1345.5 509.928C1340.42 509.928 1336.1 508.886 1332.56 506.803C1329.01 504.719 1326.32 501.79 1324.5 498.014C1322.68 494.238 1321.77 489.859 1321.77 484.879V481.07C1321.77 476.285 1322.68 472.037 1324.5 468.326C1326.36 464.583 1329.04 461.637 1332.56 459.488C1336.1 457.34 1340.42 456.266 1345.5 456.266ZM1345.5 466.227C1343.02 466.227 1340.99 466.878 1339.39 468.18C1337.8 469.482 1336.63 471.256 1335.88 473.502C1335.13 475.715 1334.75 478.222 1334.75 481.021V485.025C1334.75 487.76 1335.11 490.25 1335.83 492.496C1336.58 494.742 1337.75 496.549 1339.34 497.916C1340.94 499.251 1342.99 499.918 1345.5 499.918C1348 499.918 1350.04 499.251 1351.6 497.916C1353.16 496.549 1354.32 494.742 1355.07 492.496C1355.82 490.25 1356.19 487.76 1356.19 485.025V481.021C1356.19 478.222 1355.82 475.699 1355.07 473.453C1354.32 471.207 1353.15 469.449 1351.55 468.18C1349.99 466.878 1347.97 466.227 1345.5 466.227ZM1351.26 451.48C1349.6 451.48 1348.2 451.171 1347.06 450.553C1345.92 449.934 1344.93 449.251 1344.08 448.502C1343.23 447.721 1342.44 447.021 1341.69 446.402C1340.94 445.784 1340.12 445.475 1339.25 445.475C1338.4 445.475 1337.75 445.784 1337.29 446.402C1336.84 446.988 1336.53 447.672 1336.37 448.453C1336.2 449.202 1336.1 449.853 1336.07 450.406H1328.75C1328.75 448.355 1329.12 446.435 1329.87 444.645C1330.65 442.854 1331.78 441.422 1333.24 440.348C1334.74 439.241 1336.54 438.688 1338.66 438.688C1340.35 438.688 1341.77 438.997 1342.91 439.615C1344.08 440.201 1345.09 440.885 1345.94 441.666C1346.81 442.447 1347.64 443.147 1348.43 443.766C1349.21 444.352 1350.05 444.645 1350.96 444.645C1352.14 444.645 1353 444.107 1353.55 443.033C1354.11 441.959 1354.42 440.787 1354.48 439.518H1361.8C1361.8 441.536 1361.38 443.456 1360.54 445.279C1359.69 447.102 1358.48 448.6 1356.92 449.771C1355.36 450.911 1353.47 451.48 1351.26 451.48ZM1401.31 509.928C1396.59 509.928 1392.45 508.967 1388.9 507.047C1385.39 505.126 1382.65 502.327 1380.7 498.648C1378.78 494.938 1377.82 490.445 1377.82 485.172V480.436C1377.82 475.357 1378.78 471.028 1380.7 467.447C1382.65 463.834 1385.36 461.067 1388.81 459.146C1392.26 457.226 1396.24 456.266 1400.77 456.266C1405.49 456.266 1409.56 457.275 1412.98 459.293C1416.39 461.311 1419.01 464.16 1420.84 467.838C1422.69 471.484 1423.62 475.797 1423.62 480.777V485.855H1390.42V487.271C1390.42 491.178 1391.43 494.303 1393.45 496.646C1395.5 498.958 1398.15 500.113 1401.4 500.113C1403.1 500.113 1404.61 499.853 1405.95 499.332C1407.31 498.779 1408.44 497.997 1409.31 496.988C1410.23 495.979 1410.86 494.775 1411.22 493.375H1423.13C1422.84 495.458 1422.17 497.493 1421.13 499.479C1420.12 501.432 1418.72 503.189 1416.93 504.752C1415.17 506.314 1412.99 507.568 1410.39 508.512C1407.78 509.456 1404.76 509.928 1401.31 509.928ZM1390.42 477.701H1411.17C1411.17 477.669 1411.17 477.652 1411.17 477.652C1411.17 477.652 1411.17 477.636 1411.17 477.604C1411.17 475.39 1410.75 473.388 1409.9 471.598C1409.05 469.807 1407.85 468.408 1406.29 467.398C1404.76 466.357 1402.95 465.836 1400.87 465.836C1398.75 465.836 1396.91 466.357 1395.35 467.398C1393.79 468.408 1392.57 469.807 1391.69 471.598C1390.84 473.388 1390.42 475.39 1390.42 477.604C1390.42 477.636 1390.42 477.652 1390.42 477.652C1390.42 477.652 1390.42 477.669 1390.42 477.701ZM1432.46 472.574C1432.46 468.733 1433.42 465.608 1435.34 463.199C1437.29 460.79 1439.85 459.033 1443.01 457.926C1446.2 456.819 1449.6 456.266 1453.21 456.266C1457.35 456.266 1460.88 456.917 1463.81 458.219C1466.77 459.521 1469.05 461.36 1470.64 463.736C1472.24 466.08 1473.04 468.863 1473.04 472.086H1461.66C1461.56 470.979 1461.22 469.905 1460.63 468.863C1460.05 467.822 1459.14 466.959 1457.9 466.275C1456.69 465.559 1455.05 465.201 1452.97 465.201C1450.46 465.201 1448.46 465.755 1446.96 466.861C1445.46 467.968 1444.71 469.465 1444.71 471.354C1444.71 472.623 1445.12 473.665 1445.94 474.479C1446.75 475.26 1447.82 475.895 1449.16 476.383C1450.49 476.871 1451.94 477.278 1453.5 477.604C1455.07 477.896 1456.6 478.173 1458.09 478.434C1461.28 478.987 1464.12 479.785 1466.59 480.826C1469.1 481.868 1471.05 483.365 1472.45 485.318C1473.88 487.239 1474.6 489.794 1474.6 492.984C1474.6 496.533 1473.72 499.576 1471.96 502.115C1470.2 504.622 1467.66 506.559 1464.34 507.926C1461.06 509.26 1457.12 509.928 1452.53 509.928C1448.1 509.928 1444.31 509.277 1441.15 507.975C1437.99 506.673 1435.58 504.866 1433.92 502.555C1432.26 500.243 1431.43 497.542 1431.43 494.449H1443.88C1444.08 495.719 1444.55 496.842 1445.3 497.818C1446.08 498.795 1447.14 499.56 1448.47 500.113C1449.84 500.634 1451.44 500.895 1453.26 500.895C1455.28 500.895 1456.94 500.618 1458.24 500.064C1459.57 499.479 1460.55 498.714 1461.17 497.77C1461.82 496.793 1462.15 495.751 1462.15 494.645C1462.15 492.952 1461.53 491.682 1460.29 490.836C1459.09 489.99 1457.51 489.339 1455.55 488.883C1453.6 488.427 1451.52 487.988 1449.3 487.564C1446.21 486.913 1443.38 486.035 1440.81 484.928C1438.27 483.821 1436.24 482.291 1434.71 480.338C1433.21 478.352 1432.46 475.764 1432.46 472.574Z" fill="white"/>
<path d="M536.887 618.47V622.352C536.887 624.435 537.172 626.201 537.741 627.649C538.311 629.098 539.141 630.197 540.231 630.945C541.322 631.694 542.64 632.068 544.187 632.068C545.537 632.068 546.709 631.8 547.702 631.263C548.695 630.709 549.468 629.952 550.021 628.992C550.575 628.016 550.86 626.909 550.876 625.672H557.224C557.224 625.77 557.224 625.875 557.224 625.989C557.224 626.087 557.224 626.193 557.224 626.307C557.224 628.52 556.654 630.481 555.515 632.19C554.392 633.899 552.845 635.234 550.876 636.194C548.907 637.155 546.66 637.635 544.138 637.635C541.175 637.635 538.653 637.016 536.569 635.779C534.502 634.542 532.924 632.785 531.833 630.506C530.743 628.211 530.197 625.477 530.197 622.303V618.494C530.197 615.288 530.743 612.537 531.833 610.242C532.924 607.931 534.502 606.157 536.569 604.92C538.653 603.667 541.175 603.04 544.138 603.04C546.042 603.04 547.792 603.325 549.387 603.895C550.982 604.448 552.357 605.245 553.513 606.287C554.685 607.329 555.596 608.566 556.247 609.998C556.898 611.43 557.224 613.017 557.224 614.759C557.224 614.856 557.224 614.954 557.224 615.052C557.224 615.149 557.224 615.255 557.224 615.369H550.876C550.86 614.051 550.575 612.887 550.021 611.878C549.468 610.853 548.695 610.055 547.702 609.485C546.709 608.899 545.537 608.606 544.187 608.606C542.64 608.606 541.322 608.989 540.231 609.754C539.141 610.519 538.311 611.634 537.741 613.099C537.172 614.563 536.887 616.354 536.887 618.47ZM569.626 637.391C567.103 637.391 565.052 636.691 563.474 635.291C561.895 633.891 561.105 631.971 561.105 629.529C561.105 627.202 561.887 625.354 563.449 623.987C565.028 622.604 567.323 621.912 570.334 621.912H576.657V619.568C576.657 618.283 576.283 617.29 575.534 616.59C574.785 615.89 573.736 615.54 572.385 615.54C571.522 615.54 570.773 615.687 570.139 615.979C569.504 616.256 569.016 616.663 568.674 617.2C568.332 617.721 568.129 618.323 568.063 619.007H562.058C562.106 617.933 562.326 616.899 562.717 615.906C563.124 614.913 563.734 614.026 564.548 613.245C565.378 612.448 566.444 611.821 567.746 611.365C569.064 610.91 570.651 610.682 572.507 610.682C574.493 610.682 576.275 610.999 577.854 611.634C579.449 612.269 580.702 613.237 581.613 614.539C582.541 615.825 583.005 617.477 583.005 619.495V637H576.926V633.851H576.657C576.315 634.485 575.835 635.071 575.217 635.608C574.615 636.146 573.85 636.577 572.922 636.902C572.01 637.228 570.912 637.391 569.626 637.391ZM571.701 632.703C572.629 632.703 573.467 632.532 574.216 632.19C574.965 631.832 575.559 631.336 575.998 630.701C576.438 630.066 576.657 629.334 576.657 628.504V625.77H571.726C570.31 625.77 569.252 626.079 568.552 626.697C567.852 627.299 567.502 628.105 567.502 629.114C567.502 630.319 567.933 631.222 568.796 631.824C569.659 632.41 570.627 632.703 571.701 632.703ZM564.89 607.996L570.48 600.428H574.802L580.368 607.996H575.485L572.702 603.748H572.58L569.772 607.996H564.89ZM589.157 637V611.097H595.407V614.808H595.749C595.993 614.173 596.4 613.538 596.97 612.903C597.539 612.269 598.288 611.74 599.216 611.316C600.144 610.893 601.25 610.682 602.536 610.682C603.871 610.682 605.018 610.869 605.979 611.243C606.955 611.618 607.761 612.138 608.396 612.806C609.03 613.457 609.494 614.23 609.787 615.125H610.056C610.349 614.393 610.837 613.693 611.521 613.025C612.204 612.342 613.083 611.78 614.157 611.341C615.231 610.901 616.493 610.682 617.941 610.682C620.611 610.682 622.686 611.471 624.167 613.05C625.648 614.612 626.389 616.696 626.389 619.3V637H619.968V621.082C619.968 619.992 619.781 619.072 619.406 618.323C619.032 617.575 618.511 617.013 617.844 616.639C617.176 616.248 616.379 616.053 615.451 616.053C614.507 616.053 613.685 616.264 612.985 616.688C612.302 617.111 611.773 617.713 611.398 618.494C611.04 619.275 610.861 620.219 610.861 621.326V637H604.66V621.326C604.66 620.073 604.465 619.064 604.074 618.299C603.684 617.534 603.146 616.972 602.463 616.614C601.779 616.24 600.998 616.053 600.119 616.053C599.289 616.053 598.524 616.24 597.824 616.614C597.141 616.989 596.587 617.558 596.164 618.323C595.757 619.088 595.554 620.073 595.554 621.277V637H589.157ZM639.841 637.391C637.318 637.391 635.267 636.691 633.688 635.291C632.11 633.891 631.32 631.971 631.32 629.529C631.32 627.202 632.102 625.354 633.664 623.987C635.243 622.604 637.538 621.912 640.549 621.912H646.872V619.568C646.872 618.283 646.498 617.29 645.749 616.59C645 615.89 643.951 615.54 642.6 615.54C641.737 615.54 640.988 615.687 640.354 615.979C639.719 616.256 639.23 616.663 638.889 617.2C638.547 617.721 638.343 618.323 638.278 619.007H632.272C632.321 617.933 632.541 616.899 632.932 615.906C633.339 614.913 633.949 614.026 634.763 613.245C635.593 612.448 636.659 611.821 637.961 611.365C639.279 610.91 640.866 610.682 642.722 610.682C644.707 610.682 646.49 610.999 648.068 611.634C649.663 612.269 650.917 613.237 651.828 614.539C652.756 615.825 653.22 617.477 653.22 619.495V637H647.141V633.851H646.872C646.53 634.485 646.05 635.071 645.432 635.608C644.829 636.146 644.064 636.577 643.137 636.902C642.225 637.228 641.127 637.391 639.841 637.391ZM641.916 632.703C642.844 632.703 643.682 632.532 644.431 632.19C645.179 631.832 645.773 631.336 646.213 630.701C646.652 630.066 646.872 629.334 646.872 628.504V625.77H641.94C640.524 625.77 639.466 626.079 638.767 626.697C638.067 627.299 637.717 628.105 637.717 629.114C637.717 630.319 638.148 631.222 639.011 631.824C639.873 632.41 640.842 632.703 641.916 632.703ZM659.372 637V611.097H665.793V614.661H666.062C666.257 614.108 666.599 613.53 667.087 612.928C667.591 612.309 668.259 611.788 669.089 611.365C669.935 610.926 670.944 610.706 672.116 610.706C672.556 610.706 672.938 610.722 673.264 610.755C673.605 610.787 673.898 610.828 674.143 610.877V616.443C673.898 616.378 673.54 616.329 673.068 616.297C672.613 616.248 672.132 616.224 671.628 616.224C670.212 616.224 669.089 616.484 668.259 617.005C667.429 617.509 666.835 618.217 666.477 619.129C666.118 620.04 665.939 621.074 665.939 622.229V637H659.372ZM685.251 637.391C682.728 637.391 680.677 636.691 679.099 635.291C677.52 633.891 676.73 631.971 676.73 629.529C676.73 627.202 677.512 625.354 679.074 623.987C680.653 622.604 682.948 621.912 685.959 621.912H692.282V619.568C692.282 618.283 691.908 617.29 691.159 616.59C690.41 615.89 689.361 615.54 688.01 615.54C687.147 615.54 686.398 615.687 685.764 615.979C685.129 616.256 684.641 616.663 684.299 617.2C683.957 617.721 683.754 618.323 683.688 619.007H677.683C677.731 617.933 677.951 616.899 678.342 615.906C678.749 614.913 679.359 614.026 680.173 613.245C681.003 612.448 682.069 611.821 683.371 611.365C684.689 610.91 686.276 610.682 688.132 610.682C690.118 610.682 691.9 610.999 693.479 611.634C695.074 612.269 696.327 613.237 697.238 614.539C698.166 615.825 698.63 617.477 698.63 619.495V637H692.551V633.851H692.282C691.94 634.485 691.46 635.071 690.842 635.608C690.24 636.146 689.475 636.577 688.547 636.902C687.635 637.228 686.537 637.391 685.251 637.391ZM687.326 632.703C688.254 632.703 689.092 632.532 689.841 632.19C690.59 631.832 691.184 631.336 691.623 630.701C692.062 630.066 692.282 629.334 692.282 628.504V625.77H687.351C685.935 625.77 684.877 626.079 684.177 626.697C683.477 627.299 683.127 628.105 683.127 629.114C683.127 630.319 683.558 631.222 684.421 631.824C685.284 632.41 686.252 632.703 687.326 632.703ZM720.944 637H715.061V603.675H721.774L731.271 625.184H731.467L740.988 603.675H747.653V637H741.721V614.979H741.452L733.493 632.825H729.196L721.213 614.979H720.944V637ZM777.097 611.097V637H770.822V633.216H770.529C770.269 633.883 769.821 634.542 769.187 635.193C768.552 635.828 767.73 636.357 766.721 636.78C765.712 637.187 764.491 637.391 763.059 637.391C761.285 637.391 759.73 637.049 758.396 636.365C757.077 635.682 756.044 634.664 755.295 633.313C754.562 631.946 754.196 630.245 754.196 628.211V611.097H760.617V626.502C760.617 627.934 760.853 629.049 761.325 629.847C761.813 630.628 762.432 631.173 763.181 631.482C763.929 631.792 764.727 631.946 765.573 631.946C766.55 631.946 767.412 631.743 768.161 631.336C768.926 630.913 769.528 630.294 769.968 629.48C770.424 628.667 770.651 627.649 770.651 626.429V611.097H777.097ZM783.493 637V611.097H789.743V614.881H790.012C790.288 614.279 790.744 613.66 791.379 613.025C792.014 612.374 792.836 611.821 793.845 611.365C794.87 610.91 796.099 610.682 797.531 610.682C800.184 610.682 802.341 611.495 804.001 613.123C805.661 614.751 806.491 617.151 806.491 620.325V637H800.07V621.717C800.07 620.382 799.834 619.308 799.362 618.494C798.907 617.68 798.296 617.086 797.531 616.712C796.766 616.338 795.928 616.15 795.017 616.15C793.91 616.15 792.974 616.395 792.209 616.883C791.46 617.371 790.882 618.047 790.476 618.909C790.085 619.756 789.89 620.724 789.89 621.814V637H783.493ZM812.839 637V611.097H819.26V637H812.839ZM812.399 604.676C812.399 603.667 812.757 602.853 813.474 602.234C814.19 601.6 815.044 601.282 816.037 601.282C817.046 601.282 817.901 601.6 818.601 602.234C819.317 602.853 819.675 603.667 819.675 604.676C819.675 605.669 819.317 606.482 818.601 607.117C817.901 607.736 817.046 608.045 816.037 608.045C815.044 608.045 814.19 607.736 813.474 607.117C812.757 606.482 812.399 605.669 812.399 604.676ZM824.875 624.988V622.84C824.875 620.447 825.331 618.331 826.242 616.492C827.154 614.653 828.472 613.221 830.197 612.195C831.923 611.154 833.99 610.633 836.398 610.633C838.579 610.633 840.451 611.048 842.014 611.878C843.592 612.708 844.813 613.815 845.676 615.198C846.555 616.565 847.019 618.087 847.067 619.764H841.135C841.021 619.048 840.76 618.388 840.354 617.786C839.963 617.168 839.45 616.679 838.815 616.321C838.197 615.947 837.489 615.76 836.691 615.76C835.015 615.76 833.697 616.403 832.736 617.688C831.792 618.958 831.32 620.7 831.32 622.913V624.964C831.32 627.243 831.8 629.041 832.761 630.359C833.737 631.661 835.056 632.312 836.716 632.312C837.676 632.312 838.474 632.142 839.108 631.8C839.743 631.458 840.231 631.01 840.573 630.457C840.931 629.887 841.159 629.269 841.257 628.602H847.189C847.01 630.522 846.449 632.142 845.505 633.46C844.577 634.778 843.332 635.779 841.77 636.463C840.223 637.13 838.425 637.464 836.374 637.464C833.998 637.464 831.947 636.951 830.222 635.926C828.513 634.884 827.194 633.427 826.267 631.556C825.339 629.684 824.875 627.495 824.875 624.988ZM852.39 637V611.097H858.811V637H852.39ZM851.95 604.676C851.95 603.667 852.308 602.853 853.024 602.234C853.741 601.6 854.595 601.282 855.588 601.282C856.597 601.282 857.451 601.6 858.151 602.234C858.868 602.853 859.226 603.667 859.226 604.676C859.226 605.669 858.868 606.482 858.151 607.117C857.451 607.736 856.597 608.045 855.588 608.045C854.595 608.045 853.741 607.736 853.024 607.117C852.308 606.482 851.95 605.669 851.95 604.676ZM879.489 637.342C878.35 637.342 877.308 637.171 876.364 636.829C875.42 636.487 874.598 636.015 873.898 635.413C873.199 634.795 872.637 634.078 872.214 633.265H871.945V645.594H865.5V611.097H871.823V614.954H872.092C872.434 614.319 872.84 613.75 873.312 613.245C873.801 612.724 874.362 612.277 874.997 611.902C875.632 611.528 876.332 611.243 877.097 611.048C877.862 610.853 878.692 610.755 879.587 610.755C881.507 610.755 883.2 611.227 884.665 612.171C886.13 613.099 887.277 614.466 888.107 616.272C888.938 618.079 889.353 620.293 889.353 622.913V625.135C889.353 627.723 888.938 629.928 888.107 631.751C887.277 633.558 886.122 634.941 884.641 635.901C883.176 636.862 881.459 637.342 879.489 637.342ZM877.512 632.215C878.553 632.215 879.465 631.938 880.246 631.385C881.044 630.815 881.662 629.985 882.102 628.895C882.557 627.804 882.785 626.453 882.785 624.842V623.133C882.785 621.587 882.565 620.276 882.126 619.202C881.703 618.112 881.092 617.29 880.295 616.736C879.514 616.167 878.562 615.882 877.438 615.882C876.332 615.882 875.355 616.175 874.509 616.761C873.679 617.347 873.036 618.177 872.58 619.251C872.124 620.325 871.896 621.611 871.896 623.108V624.842C871.896 626.372 872.124 627.69 872.58 628.797C873.052 629.887 873.703 630.734 874.533 631.336C875.38 631.922 876.372 632.215 877.512 632.215ZM901.95 637.391C899.427 637.391 897.377 636.691 895.798 635.291C894.219 633.891 893.43 631.971 893.43 629.529C893.43 627.202 894.211 625.354 895.773 623.987C897.352 622.604 899.647 621.912 902.658 621.912H908.981V619.568C908.981 618.283 908.607 617.29 907.858 616.59C907.11 615.89 906.06 615.54 904.709 615.54C903.846 615.54 903.098 615.687 902.463 615.979C901.828 616.256 901.34 616.663 900.998 617.2C900.656 617.721 900.453 618.323 900.388 619.007H894.382C894.431 617.933 894.65 616.899 895.041 615.906C895.448 614.913 896.058 614.026 896.872 613.245C897.702 612.448 898.768 611.821 900.07 611.365C901.389 610.91 902.976 610.682 904.831 610.682C906.817 610.682 908.599 610.999 910.178 611.634C911.773 612.269 913.026 613.237 913.938 614.539C914.865 615.825 915.329 617.477 915.329 619.495V637H909.25V633.851H908.981C908.64 634.485 908.16 635.071 907.541 635.608C906.939 636.146 906.174 636.577 905.246 636.902C904.335 637.228 903.236 637.391 901.95 637.391ZM904.025 632.703C904.953 632.703 905.791 632.532 906.54 632.19C907.289 631.832 907.883 631.336 908.322 630.701C908.762 630.066 908.981 629.334 908.981 628.504V625.77H904.05C902.634 625.77 901.576 626.079 900.876 626.697C900.176 627.299 899.826 628.105 899.826 629.114C899.826 630.319 900.257 631.222 901.12 631.824C901.983 632.41 902.951 632.703 904.025 632.703ZM921.652 637V601.917H928.098V637H921.652ZM953.415 610.755C954.587 610.755 955.653 610.934 956.613 611.292C957.59 611.634 958.428 612.114 959.128 612.732C959.844 613.351 960.397 614.067 960.788 614.881H961.032V601.917H967.478V637H961.154V632.996H960.886C960.593 633.663 960.202 634.266 959.714 634.803C959.226 635.324 958.664 635.771 958.029 636.146C957.395 636.52 956.687 636.805 955.905 637C955.14 637.212 954.31 637.317 953.415 637.317C951.315 637.317 949.525 636.821 948.044 635.828C946.579 634.835 945.456 633.427 944.675 631.604C943.894 629.782 943.503 627.617 943.503 625.11V622.938C943.503 620.464 943.902 618.315 944.699 616.492C945.497 614.669 946.636 613.261 948.117 612.269C949.598 611.259 951.364 610.755 953.415 610.755ZM955.466 615.906C954.44 615.906 953.521 616.175 952.707 616.712C951.893 617.233 951.25 618.03 950.778 619.104C950.323 620.179 950.095 621.53 950.095 623.157V624.939C950.095 626.551 950.331 627.902 950.803 628.992C951.275 630.066 951.918 630.872 952.731 631.409C953.545 631.93 954.473 632.19 955.515 632.19C956.654 632.19 957.639 631.914 958.469 631.36C959.299 630.807 959.942 629.993 960.397 628.919C960.853 627.845 961.081 626.526 961.081 624.964V623.157C961.081 621.644 960.845 620.35 960.373 619.275C959.917 618.185 959.266 617.355 958.42 616.785C957.59 616.199 956.605 615.906 955.466 615.906ZM984.665 637.464C982.305 637.464 980.238 636.984 978.464 636.023C976.706 635.063 975.339 633.663 974.362 631.824C973.402 629.969 972.922 627.723 972.922 625.086V622.718C972.922 620.179 973.402 618.014 974.362 616.224C975.339 614.417 976.69 613.034 978.415 612.073C980.14 611.113 982.134 610.633 984.396 610.633C986.757 610.633 988.791 611.137 990.5 612.146C992.209 613.156 993.519 614.58 994.431 616.419C995.358 618.242 995.822 620.398 995.822 622.889V625.428H979.221V626.136C979.221 628.089 979.725 629.651 980.734 630.823C981.76 631.979 983.086 632.557 984.714 632.557C985.56 632.557 986.317 632.426 986.984 632.166C987.668 631.889 988.229 631.499 988.669 630.994C989.125 630.49 989.442 629.887 989.621 629.188H995.578C995.432 630.229 995.098 631.246 994.577 632.239C994.073 633.216 993.373 634.095 992.478 634.876C991.599 635.657 990.508 636.284 989.206 636.756C987.904 637.228 986.39 637.464 984.665 637.464ZM979.221 621.351H989.597C989.597 621.334 989.597 621.326 989.597 621.326C989.597 621.326 989.597 621.318 989.597 621.302C989.597 620.195 989.385 619.194 988.962 618.299C988.539 617.404 987.937 616.704 987.155 616.199C986.39 615.678 985.487 615.418 984.445 615.418C983.387 615.418 982.468 615.678 981.687 616.199C980.905 616.704 980.295 617.404 979.855 618.299C979.432 619.194 979.221 620.195 979.221 621.302C979.221 621.318 979.221 621.326 979.221 621.326C979.221 621.326 979.221 621.334 979.221 621.351ZM1024.66 603.675C1027.05 603.675 1029.08 604.171 1030.76 605.164C1032.44 606.141 1033.71 607.467 1034.59 609.144C1035.47 610.804 1035.91 612.684 1035.91 614.783C1035.91 616.899 1035.46 618.787 1034.57 620.447C1033.69 622.107 1032.4 623.418 1030.71 624.378C1029.03 625.338 1026.99 625.818 1024.58 625.818H1017.92V637H1011.33V603.675H1024.66ZM1029.2 614.783C1029.2 612.895 1028.68 611.447 1027.66 610.438C1026.63 609.428 1025.21 608.924 1023.39 608.924H1017.89V620.643H1021.85C1023.38 620.643 1024.69 620.472 1025.78 620.13C1026.89 619.772 1027.73 619.17 1028.32 618.323C1028.9 617.461 1029.2 616.281 1029.2 614.783ZM1050.95 610.633C1053.49 610.633 1055.64 611.17 1057.39 612.244C1059.17 613.302 1060.51 614.767 1061.42 616.639C1062.33 618.494 1062.79 620.618 1062.79 623.011V624.915C1062.79 627.422 1062.33 629.619 1061.42 631.507C1060.51 633.395 1059.17 634.86 1057.39 635.901C1055.64 636.943 1053.49 637.464 1050.95 637.464C1048.41 637.464 1046.25 636.943 1044.48 635.901C1042.71 634.86 1041.36 633.395 1040.45 631.507C1039.54 629.619 1039.08 627.43 1039.08 624.939V623.035C1039.08 620.643 1039.54 618.519 1040.45 616.663C1041.38 614.791 1042.72 613.318 1044.48 612.244C1046.25 611.17 1048.41 610.633 1050.95 610.633ZM1050.95 615.613C1049.71 615.613 1048.69 615.939 1047.9 616.59C1047.1 617.241 1046.51 618.128 1046.14 619.251C1045.77 620.358 1045.58 621.611 1045.58 623.011V625.013C1045.58 626.38 1045.76 627.625 1046.12 628.748C1046.49 629.871 1047.08 630.774 1047.87 631.458C1048.67 632.125 1049.7 632.459 1050.95 632.459C1052.2 632.459 1053.22 632.125 1054 631.458C1054.78 630.774 1055.36 629.871 1055.73 628.748C1056.11 627.625 1056.3 626.38 1056.3 625.013V623.011C1056.3 621.611 1056.11 620.35 1055.73 619.227C1055.36 618.104 1054.77 617.225 1053.98 616.59C1053.2 615.939 1052.19 615.613 1050.95 615.613ZM1068.16 637V611.097H1074.41V614.881H1074.68C1074.96 614.279 1075.41 613.66 1076.05 613.025C1076.68 612.374 1077.5 611.821 1078.51 611.365C1079.54 610.91 1080.77 610.682 1082.2 610.682C1084.85 610.682 1087.01 611.495 1088.67 613.123C1090.33 614.751 1091.16 617.151 1091.16 620.325V637H1084.74V621.717C1084.74 620.382 1084.5 619.308 1084.03 618.494C1083.57 617.68 1082.96 617.086 1082.2 616.712C1081.43 616.338 1080.6 616.15 1079.68 616.15C1078.58 616.15 1077.64 616.395 1076.88 616.883C1076.13 617.371 1075.55 618.047 1075.14 618.909C1074.75 619.756 1074.56 620.724 1074.56 621.814V637H1068.16ZM1099.19 611.097V604.896H1105.44V611.097H1110.47V616.077H1105.44V628.846C1105.44 630.132 1105.73 631.019 1106.32 631.507C1106.91 631.979 1107.87 632.215 1109.2 632.215C1109.48 632.215 1109.74 632.215 1109.98 632.215C1110.23 632.199 1110.42 632.182 1110.57 632.166V636.927C1110.32 636.976 1109.93 637.024 1109.4 637.073C1108.88 637.122 1108.29 637.146 1107.64 637.146C1105.49 637.146 1103.79 636.894 1102.54 636.39C1101.3 635.869 1100.41 635.063 1099.88 633.973C1099.34 632.866 1099.07 631.434 1099.07 629.676V616.077H1095.41V611.097H1099.19ZM1122.85 637.391C1120.33 637.391 1118.28 636.691 1116.7 635.291C1115.12 633.891 1114.33 631.971 1114.33 629.529C1114.33 627.202 1115.11 625.354 1116.67 623.987C1118.25 622.604 1120.55 621.912 1123.56 621.912H1129.88V619.568C1129.88 618.283 1129.51 617.29 1128.76 616.59C1128.01 615.89 1126.96 615.54 1125.61 615.54C1124.74 615.54 1124 615.687 1123.36 615.979C1122.73 616.256 1122.24 616.663 1121.9 617.2C1121.55 617.721 1121.35 618.323 1121.29 619.007H1115.28C1115.33 617.933 1115.55 616.899 1115.94 615.906C1116.35 614.913 1116.96 614.026 1117.77 613.245C1118.6 612.448 1119.67 611.821 1120.97 611.365C1122.29 610.91 1123.87 610.682 1125.73 610.682C1127.72 610.682 1129.5 610.999 1131.08 611.634C1132.67 612.269 1133.92 613.237 1134.84 614.539C1135.76 615.825 1136.23 617.477 1136.23 619.495V637H1130.15V633.851H1129.88C1129.54 634.485 1129.06 635.071 1128.44 635.608C1127.84 636.146 1127.07 636.577 1126.14 636.902C1125.23 637.228 1124.13 637.391 1122.85 637.391ZM1124.92 632.703C1125.85 632.703 1126.69 632.532 1127.44 632.19C1128.19 631.832 1128.78 631.336 1129.22 630.701C1129.66 630.066 1129.88 629.334 1129.88 628.504V625.77H1124.95C1123.53 625.77 1122.47 626.079 1121.77 626.697C1121.07 627.299 1120.72 628.105 1120.72 629.114C1120.72 630.319 1121.16 631.222 1122.02 631.824C1122.88 632.41 1123.85 632.703 1124.92 632.703ZM1178.63 614.344H1172.21C1172.1 613.481 1171.86 612.7 1171.51 612C1171.16 611.284 1170.7 610.674 1170.11 610.169C1169.54 609.664 1168.86 609.274 1168.06 608.997C1167.27 608.72 1166.37 608.582 1165.38 608.582C1162.99 608.582 1161.14 609.404 1159.84 611.048C1158.53 612.675 1157.88 614.979 1157.88 617.957V622.327C1157.88 624.28 1158.15 625.997 1158.69 627.479C1159.23 628.943 1160.06 630.083 1161.18 630.896C1162.32 631.71 1163.78 632.117 1165.57 632.117C1166.97 632.117 1168.19 631.849 1169.21 631.312C1170.24 630.774 1171.03 630.05 1171.58 629.139C1172.13 628.227 1172.41 627.21 1172.41 626.087V623.963H1165.55V619.056H1178.68V625.696C1178.68 627.291 1178.4 628.813 1177.83 630.262C1177.26 631.71 1176.4 632.988 1175.27 634.095C1174.14 635.185 1172.76 636.048 1171.12 636.683C1169.47 637.317 1167.58 637.635 1165.45 637.635C1163.03 637.635 1160.92 637.269 1159.13 636.536C1157.35 635.804 1155.88 634.762 1154.71 633.411C1153.55 632.06 1152.68 630.449 1152.1 628.577C1151.53 626.689 1151.24 624.614 1151.24 622.352V617.908C1151.24 614.93 1151.8 612.326 1152.9 610.096C1154.01 607.866 1155.61 606.132 1157.71 604.896C1159.83 603.659 1162.39 603.04 1165.4 603.04C1167.45 603.04 1169.28 603.333 1170.9 603.919C1172.51 604.505 1173.87 605.319 1175 606.36C1176.12 607.402 1176.99 608.606 1177.61 609.974C1178.23 611.325 1178.57 612.781 1178.63 614.344ZM1184.08 637V611.097H1190.5V614.661H1190.77C1190.96 614.108 1191.31 613.53 1191.79 612.928C1192.3 612.309 1192.97 611.788 1193.8 611.365C1194.64 610.926 1195.65 610.706 1196.82 610.706C1197.26 610.706 1197.65 610.722 1197.97 610.755C1198.31 610.787 1198.61 610.828 1198.85 610.877V616.443C1198.61 616.378 1198.25 616.329 1197.78 616.297C1197.32 616.248 1196.84 616.224 1196.33 616.224C1194.92 616.224 1193.8 616.484 1192.97 617.005C1192.14 617.509 1191.54 618.217 1191.18 619.129C1190.83 620.04 1190.65 621.074 1190.65 622.229V637H1184.08ZM1213.6 610.633C1216.13 610.633 1218.28 611.17 1220.04 612.244C1221.82 613.302 1223.16 614.767 1224.07 616.639C1224.98 618.494 1225.44 620.618 1225.44 623.011V624.915C1225.44 627.422 1224.98 629.619 1224.07 631.507C1223.16 633.395 1221.82 634.86 1220.04 635.901C1218.28 636.943 1216.13 637.464 1213.6 637.464C1211.06 637.464 1208.9 636.943 1207.13 635.901C1205.35 634.86 1204.01 633.395 1203.1 631.507C1202.19 629.619 1201.73 627.43 1201.73 624.939V623.035C1201.73 620.643 1202.19 618.519 1203.1 616.663C1204.03 614.791 1205.37 613.318 1207.13 612.244C1208.9 611.17 1211.06 610.633 1213.6 610.633ZM1213.6 615.613C1212.36 615.613 1211.34 615.939 1210.54 616.59C1209.75 617.241 1209.16 618.128 1208.79 619.251C1208.41 620.358 1208.22 621.611 1208.22 623.011V625.013C1208.22 626.38 1208.4 627.625 1208.76 628.748C1209.14 629.871 1209.72 630.774 1210.52 631.458C1211.32 632.125 1212.34 632.459 1213.6 632.459C1214.85 632.459 1215.87 632.125 1216.65 631.458C1217.43 630.774 1218.01 629.871 1218.38 628.748C1218.76 627.625 1218.94 626.38 1218.94 625.013V623.011C1218.94 621.611 1218.76 620.35 1218.38 619.227C1218.01 618.104 1217.42 617.225 1216.62 616.59C1215.84 615.939 1214.83 615.613 1213.6 615.613ZM1229.93 618.787C1229.93 616.867 1230.41 615.304 1231.37 614.1C1232.35 612.895 1233.62 612.016 1235.2 611.463C1236.8 610.91 1238.5 610.633 1240.3 610.633C1242.37 610.633 1244.14 610.958 1245.6 611.609C1247.08 612.26 1248.22 613.18 1249.02 614.368C1249.82 615.54 1250.22 616.932 1250.22 618.543H1244.53C1244.48 617.99 1244.31 617.452 1244.02 616.932C1243.72 616.411 1243.27 615.979 1242.65 615.638C1242.05 615.28 1241.22 615.101 1240.18 615.101C1238.93 615.101 1237.93 615.377 1237.18 615.931C1236.43 616.484 1236.06 617.233 1236.06 618.177C1236.06 618.812 1236.26 619.332 1236.67 619.739C1237.07 620.13 1237.61 620.447 1238.28 620.691C1238.95 620.936 1239.67 621.139 1240.45 621.302C1241.23 621.448 1242 621.587 1242.75 621.717C1244.34 621.993 1245.76 622.392 1246.99 622.913C1248.25 623.434 1249.22 624.183 1249.92 625.159C1250.64 626.119 1251 627.397 1251 628.992C1251 630.766 1250.56 632.288 1249.68 633.558C1248.8 634.811 1247.53 635.779 1245.87 636.463C1244.23 637.13 1242.26 637.464 1239.96 637.464C1237.75 637.464 1235.85 637.138 1234.27 636.487C1232.7 635.836 1231.49 634.933 1230.66 633.777C1229.83 632.622 1229.42 631.271 1229.42 629.725H1235.64C1235.74 630.359 1235.98 630.921 1236.35 631.409C1236.74 631.897 1237.27 632.28 1237.94 632.557C1238.62 632.817 1239.42 632.947 1240.33 632.947C1241.34 632.947 1242.17 632.809 1242.82 632.532C1243.49 632.239 1243.97 631.857 1244.28 631.385C1244.61 630.896 1244.77 630.376 1244.77 629.822C1244.77 628.976 1244.46 628.341 1243.84 627.918C1243.24 627.495 1242.45 627.169 1241.48 626.941C1240.5 626.714 1239.46 626.494 1238.35 626.282C1236.81 625.957 1235.39 625.517 1234.1 624.964C1232.83 624.41 1231.82 623.646 1231.05 622.669C1230.3 621.676 1229.93 620.382 1229.93 618.787ZM1255.17 618.787C1255.17 616.867 1255.65 615.304 1256.61 614.1C1257.59 612.895 1258.87 612.016 1260.45 611.463C1262.04 610.91 1263.74 610.633 1265.55 610.633C1267.62 610.633 1269.38 610.958 1270.85 611.609C1272.33 612.26 1273.47 613.18 1274.26 614.368C1275.06 615.54 1275.46 616.932 1275.46 618.543H1269.77C1269.72 617.99 1269.55 617.452 1269.26 616.932C1268.97 616.411 1268.51 615.979 1267.89 615.638C1267.29 615.28 1266.47 615.101 1265.43 615.101C1264.17 615.101 1263.17 615.377 1262.42 615.931C1261.68 616.484 1261.3 617.233 1261.3 618.177C1261.3 618.812 1261.5 619.332 1261.91 619.739C1262.32 620.13 1262.86 620.447 1263.52 620.691C1264.19 620.936 1264.91 621.139 1265.7 621.302C1266.48 621.448 1267.24 621.587 1267.99 621.717C1269.59 621.993 1271 622.392 1272.24 622.913C1273.49 623.434 1274.47 624.183 1275.17 625.159C1275.88 626.119 1276.24 627.397 1276.24 628.992C1276.24 630.766 1275.8 632.288 1274.92 633.558C1274.04 634.811 1272.78 635.779 1271.12 636.463C1269.47 637.13 1267.5 637.464 1265.21 637.464C1262.99 637.464 1261.1 637.138 1259.52 636.487C1257.94 635.836 1256.74 634.933 1255.91 633.777C1255.08 632.622 1254.66 631.271 1254.66 629.725H1260.89C1260.98 630.359 1261.22 630.921 1261.59 631.409C1261.98 631.897 1262.51 632.28 1263.18 632.557C1263.86 632.817 1264.66 632.947 1265.57 632.947C1266.58 632.947 1267.41 632.809 1268.06 632.532C1268.73 632.239 1269.22 631.857 1269.53 631.385C1269.85 630.896 1270.02 630.376 1270.02 629.822C1270.02 628.976 1269.71 628.341 1269.09 627.918C1268.49 627.495 1267.7 627.169 1266.72 626.941C1265.74 626.714 1264.7 626.494 1263.6 626.282C1262.05 625.957 1260.63 625.517 1259.35 624.964C1258.08 624.41 1257.06 623.646 1256.3 622.669C1255.55 621.676 1255.17 620.382 1255.17 618.787ZM1288.47 637.391C1285.95 637.391 1283.9 636.691 1282.32 635.291C1280.74 633.891 1279.95 631.971 1279.95 629.529C1279.95 627.202 1280.73 625.354 1282.3 623.987C1283.88 622.604 1286.17 621.912 1289.18 621.912H1295.5V619.568C1295.5 618.283 1295.13 617.29 1294.38 616.59C1293.63 615.89 1292.58 615.54 1291.23 615.54C1290.37 615.54 1289.62 615.687 1288.99 615.979C1288.35 616.256 1287.86 616.663 1287.52 617.2C1287.18 617.721 1286.98 618.323 1286.91 619.007H1280.91C1280.95 617.933 1281.17 616.899 1281.56 615.906C1281.97 614.913 1282.58 614.026 1283.4 613.245C1284.23 612.448 1285.29 611.821 1286.59 611.365C1287.91 610.91 1289.5 610.682 1291.35 610.682C1293.34 610.682 1295.12 610.999 1296.7 611.634C1298.3 612.269 1299.55 613.237 1300.46 614.539C1301.39 615.825 1301.85 617.477 1301.85 619.495V637H1295.77V633.851H1295.5C1295.16 634.485 1294.68 635.071 1294.06 635.608C1293.46 636.146 1292.7 636.577 1291.77 636.902C1290.86 637.228 1289.76 637.391 1288.47 637.391ZM1290.55 632.703C1291.48 632.703 1292.31 632.532 1293.06 632.19C1293.81 631.832 1294.41 631.336 1294.85 630.701C1295.29 630.066 1295.5 629.334 1295.5 628.504V625.77H1290.57C1289.16 625.77 1288.1 626.079 1287.4 626.697C1286.7 627.299 1286.35 628.105 1286.35 629.114C1286.35 630.319 1286.78 631.222 1287.64 631.824C1288.51 632.41 1289.47 632.703 1290.55 632.703Z" fill="white"/>
<path d="M459.759 535H1483L1467.07 545H437L459.759 535Z" fill="#F8CD50"/>
</svg>
